
<svg width="44" height="44" viewBox="0 0 44 44" fill="none" xmlns="http://www.w3.org/2000/svg">
  <circle cx="22" cy="22" r="22" fill="black"/>
  <path fill-rule="evenodd" clip-rule="evenodd" d="M11.8461 21.577C11.8461 18.8135 11.8461 17.4317 12.3697 16.37C12.864 15.3677 13.6752 14.5564 14.6776 14.0621C15.7393 13.5386 17.121 13.5386 19.8846 13.5386H24.0307C26.8741 13.5386 28.2957 13.5386 29.3818 14.0919C30.337 14.5787 31.1137 15.3553 31.6005 16.3106C32.1538 17.3966 32.1538 18.8183 32.1538 21.6617V26.654V31.036C32.1538 31.5336 32.1538 31.7824 32.108 31.9159C31.937 32.4142 31.357 32.6368 30.8965 32.3808C30.7731 32.3122 30.6067 32.1273 30.2739 31.7575L30.2739 31.7574L30.2738 31.7574L30.2738 31.7574L30.2738 31.7573C29.8667 31.305 29.6632 31.0789 29.4441 30.8856C28.6666 30.1995 27.6976 29.768 26.6676 29.649C26.3773 29.6155 26.073 29.6155 25.4645 29.6155H19.8846C17.121 29.6155 15.7393 29.6155 14.6776 29.0919C13.6752 28.5976 12.864 27.7864 12.3697 26.784C11.8461 25.7223 11.8461 24.3406 11.8461 21.577ZM26.5721 19.4618C26.5721 18.9945 26.1932 18.6157 25.7259 18.6157H18.1105C17.6432 18.6157 17.2644 18.9945 17.2644 19.4618C17.2644 19.9291 17.6432 20.308 18.1105 20.308H25.7259C26.1932 20.308 26.5721 19.9291 26.5721 19.4618ZM25.7259 22.8464C26.1932 22.8464 26.5721 23.2253 26.5721 23.6926C26.5721 24.1599 26.1932 24.5387 25.7259 24.5387H18.1105C17.6432 24.5387 17.2644 24.1599 17.2644 23.6926C17.2644 23.2253 17.6432 22.8464 18.1105 22.8464H25.7259Z" fill="white"/>
  </svg>
  