<svg width="20" height="20" viewBox="0 0 20 20" fill="none" xmlns="http://www.w3.org/2000/svg">
<path d="M17.0253 1.66675H2.97302C2.25405 1.66675 1.66583 2.255 1.66583 2.97393V17.0262C1.66583 17.7452 2.25407 18.3334 2.97302 18.3334H17.0253C17.7443 18.3334 18.3325 17.7452 18.3325 17.0262V2.97393C18.3325 2.255 17.7443 1.66675 17.0253 1.66675ZM15.1812 11.0505H13.5006V17.353H11.1896V11.0505H9.50897V8.94964H11.1896V6.42865C11.1896 5.37824 12.1133 4.8602 12.6602 4.74795C13.329 4.61071 15.2863 4.64295 15.2863 4.64295V6.95383H13.8157C13.3955 6.95383 13.3955 7.37407 13.3955 7.37407V8.94964H15.3913L15.1812 11.0505Z" fill="black" fill-opacity="0.9"/>
</svg>
