<svg width="54" height="39" viewBox="0 0 54 39" fill="none" xmlns="http://www.w3.org/2000/svg">
<path opacity="0.9" fill-rule="evenodd" clip-rule="evenodd" d="M6.90036 25.8151V6.15036C6.90036 3.58204 4.81832 1.5 2.25 1.5V14.6232L4.57465 17.9032L2.25 16.4975V27.18L10.0006 37.4328L17.7512 27.18V1.5C15.1829 1.5 13.1008 3.58204 13.1008 6.15036V25.8151L10.0006 30.4025L6.90036 25.8151ZM21.6264 1.5184H19.3012V3.84356V27.8228L22.0908 25.7142L19.3012 30.6343V35.0895V37.4146H21.6264H29.377C32.3734 37.4146 34.8024 34.9856 34.8024 31.9892V6.94377C34.8024 3.94742 32.3734 1.5184 29.377 1.5184H21.6264ZM23.9516 32.7643V6.16872H29.377C29.8051 6.16872 30.1521 6.51572 30.1521 6.94377V31.9892C30.1521 32.4173 29.8051 32.7643 29.377 32.7643H23.9516ZM38.6779 1.5184H36.3527V3.84356V35.0895V37.4146H38.6779H46.4285C49.4248 37.4146 51.8539 34.9856 51.8539 31.9892V11.9876L49.5281 13.9967L51.8539 9.30868V6.94377C51.8539 3.94742 49.4248 1.5184 46.4285 1.5184H38.6779ZM41.003 32.7643V6.16872H46.4285C46.8565 6.16872 47.2035 6.51572 47.2035 6.94377V31.9892C47.2035 32.4173 46.8565 32.7643 46.4285 32.7643H41.003Z" fill="black"/>
</svg>
