<svg width="24" height="24" viewBox="0 0 24 24" fill="none" xmlns="http://www.w3.org/2000/svg">
<path opacity="0.9" fill-rule="evenodd" clip-rule="evenodd" d="M3 7C3 6.30964 3.55964 5.75 4.25 5.75H19.75C20.4404 5.75 21 6.30964 21 7C21 7.69036 20.4404 8.25 19.75 8.25H4.25C3.55964 8.25 3 7.69036 3 7ZM7 12C7 11.3096 7.55964 10.75 8.25 10.75H19.75C20.4404 10.75 21 11.3096 21 12C21 12.6904 20.4404 13.25 19.75 13.25H8.25C7.55964 13.25 7 12.6904 7 12ZM14.25 15.75C13.5596 15.75 13 16.3096 13 17C13 17.6904 13.5596 18.25 14.25 18.25H19.75C20.4404 18.25 21 17.6904 21 17C21 16.3096 20.4404 15.75 19.75 15.75H14.25Z" fill="black"/>
</svg>
