<svg width="20" height="20" viewBox="0 0 20 20" fill="none" xmlns="http://www.w3.org/2000/svg">
<path d="M17.2993 6.32877C17.2993 6.15681 17.296 5.98678 17.2884 5.81792C18.0235 5.27017 18.6614 4.5845 19.1659 3.79988C18.4808 4.10814 17.7518 4.30757 17.0052 4.391C17.7822 3.91284 18.3781 3.14811 18.6597 2.23039C17.9322 2.67162 17.1274 2.98707 16.2717 3.15144C15.586 2.37131 14.6076 1.87443 13.526 1.85596C11.4486 1.82162 9.76467 3.57702 9.76467 5.77624C9.76467 6.08884 9.79736 6.39199 9.86227 6.68474C6.73408 6.48344 3.9621 4.85522 2.10787 2.40068C1.78432 2.98875 1.5987 3.67603 1.5987 4.41257C1.5987 5.80563 2.26277 7.04377 3.27174 7.77439C2.65406 7.74645 2.07543 7.55938 1.56792 7.25267V7.30382C1.56792 9.25082 2.86487 10.8821 4.58577 11.2627C4.27028 11.3524 3.93752 11.3991 3.59529 11.3975C3.35751 11.3962 3.1205 11.3703 2.88809 11.32C3.36627 12.9155 4.75603 14.0812 6.40135 14.12C5.11365 15.1877 3.49155 15.8254 1.73042 15.821C1.42676 15.821 1.1267 15.8006 0.83252 15.7637C2.49777 16.9059 4.47446 17.5712 6.59939 17.5712C13.5165 17.5728 17.2993 11.5523 17.2993 6.32877Z" fill="black" fill-opacity="0.9"/>
</svg>
